# xmcd CD database file
#
# Track frame offsets:
#	150
#	19296
#	36845
#	52520
#	69485
#	82609
#	107133
#	124943
#	142490
#	158344
#	172981
#	190565
#	206991
#
# Disc length: 2961 seconds
#
# Revision: 0
# Processed by: cddbd v1.5.2PL0 Copyright (c) Steve Scherf et al.
# Submitted via: CDex 1.70beta2
#
DISCID=a70b8f0d
DTITLE=Dave Sheriff and Shayenne - She... Who Must Be Obeyed
DYEAR=2001
DGENRE=Country
TTITLE0=She... Who Must Be Obeyed
TTITLE1=I Only Want You For Your Money - Honey
TTITLE2=Saying Goodbye
TTITLE3=Where Do We Go From Here
TTITLE4=We Learn To Disagree
TTITLE5=We've Got Memories
TTITLE6=Heart Made Of Stone
TTITLE7=More Than One Heart
TTITLE8=Outta Control
TTITLE9=Crying Through My Eyes
TTITLE10=Truth Hurts
TTITLE11=Strong Love
TTITLE12=Christmas Is Coming
EXTD=YEAR: 2001
EXTT0=
EXTT1=
EXTT2=
EXTT3=
EXTT4=
EXTT5=
EXTT6=
EXTT7=
EXTT8=
EXTT9=
EXTT10=
EXTT11=
EXTT12=
PLAYORDER=
